<?xml version="1.0" standalone="no"?>
<!DOCTYPE svg PUBLIC "-//W3C//DTD SVG 20010904//EN"
 "http://www.w3.org/TR/2001/REC-SVG-20010904/DTD/svg10.dtd">
<svg version="1.0" xmlns="http://www.w3.org/2000/svg"
 width="192.000000pt" height="192.000000pt" viewBox="0 0 192.000000 192.000000"
 preserveAspectRatio="xMidYMid meet">

<g transform="translate(0.000000,192.000000) scale(0.100000,-0.100000)"
fill="#000000" stroke="none">
<path d="M0 960 l0 -960 960 0 960 0 0 960 0 960 -960 0 -960 0 0 -960z m1838
230 c1 -349 0 -641 -3 -649 -5 -11 -8 -11 -23 1 -54 48 -111 58 -182 33 -42
-15 -44 -14 -67 7 -13 12 -23 30 -23 40 0 10 -7 21 -15 24 -8 4 -15 10 -15 15
0 6 9 5 20 -1 11 -6 25 -8 31 -5 5 4 -12 18 -39 32 l-50 25 24 36 c24 35 31
76 15 86 -13 8 -37 -24 -51 -67 l-12 -39 -40 39 c-60 58 -77 86 -87 144 -5 30
-9 43 -10 29 l-2 -25 -16 29 c-26 48 -34 88 -21 103 9 11 9 16 -2 23 -10 6 -9
17 6 59 l18 52 18 -23 c18 -23 18 -23 6 9 -7 17 -15 30 -19 28 -3 -3 -4 7 -1
20 2 14 8 25 13 25 5 0 9 9 9 19 0 10 6 21 13 24 29 11 57 164 32 173 -7 3
-16 16 -19 30 -10 37 -77 81 -120 78 -20 -2 -45 -8 -56 -14 -11 -6 -25 -8 -30
-5 -6 3 -10 1 -10 -6 0 -7 -3 -10 -6 -7 -7 8 -54 -36 -54 -50 0 -6 5 -12 12
-14 8 -3 5 -14 -10 -33 -15 -19 -19 -32 -13 -38 14 -14 41 10 41 35 0 10 8 22
18 25 9 4 28 15 41 25 25 19 91 25 91 8 0 -5 -8 -7 -17 -4 -10 3 -8 -1 5 -8
12 -8 20 -17 17 -20 -3 -3 5 -12 19 -21 16 -11 26 -30 31 -57 4 -22 11 -42 16
-46 5 -3 7 -10 4 -15 -4 -5 -1 -9 5 -9 7 0 5 -7 -4 -16 -9 -8 -16 -22 -16 -30
0 -8 -4 -14 -10 -14 -5 0 -10 7 -10 15 0 8 -6 15 -13 15 -23 0 -45 -33 -50
-75 -6 -43 -54 -185 -75 -222 -11 -20 -49 -36 -116 -49 -10 -2 -28 2 -40 8
-19 10 -20 10 -7 -6 11 -13 25 -17 58 -13 24 2 43 3 43 2 0 -1 -24 -53 -54
-116 -42 -87 -52 -118 -45 -132 6 -9 13 -16 17 -13 4 2 21 -7 37 -20 29 -23
29 -24 7 -24 -12 0 -25 7 -28 15 -4 8 -16 15 -28 15 -25 1 -58 42 -50 63 3 8
14 17 25 20 31 8 22 40 -22 82 l-41 40 5 65 c7 85 14 102 38 95 26 -9 56 28
64 78 5 24 11 37 19 34 10 -4 10 3 2 29 -10 31 -12 32 -16 12 -7 -27 -26 -33
-63 -19 -19 7 -29 22 -38 53 -7 24 -18 50 -25 58 -9 10 -10 20 -3 33 8 13 6
17 -6 17 -21 0 -19 13 5 28 11 7 20 20 20 30 0 36 -13 31 -34 -11 -27 -54 -67
-107 -80 -107 -6 0 -19 14 -28 30 -9 17 -29 35 -43 40 -14 5 -30 22 -35 36 -6
15 -13 24 -16 21 -3 -3 0 -15 6 -27 6 -11 9 -26 7 -33 -3 -7 -9 -1 -15 13
l-11 25 0 -27 c-1 -15 3 -38 8 -51 7 -18 3 -41 -13 -88 -33 -93 -134 -288
-157 -302 -26 -16 -24 -30 11 -66 33 -33 35 -30 -45 -71 -40 -20 -51 -31 -53
-54 -7 -63 7 -80 50 -62 20 9 58 -21 42 -32 -6 -4 -11 -17 -11 -29 -3 -41 141
-104 232 -101 l30 0 -30 7 c-24 5 -29 11 -27 30 4 41 52 64 52 25 0 -8 5 -14
10 -14 6 0 10 -8 8 -17 -2 -14 5 -19 35 -21 26 -2 37 -8 38 -20 1 -15 2 -15 6
0 5 21 49 25 56 6 3 -7 6 -2 6 11 1 21 -2 23 -33 17 -34 -6 -57 6 -36 19 8 5
8 11 0 20 -8 9 -6 14 9 18 18 4 58 -15 72 -36 4 -5 12 -6 18 -2 8 4 -4 17 -32
35 -40 25 -57 46 -57 71 0 14 26 11 40 -6 7 -8 16 -13 20 -10 4 3 15 -6 23
-19 12 -17 22 -22 41 -19 20 4 26 1 26 -12 0 -14 6 -16 28 -12 19 4 34 -1 49
-15 27 -25 53 -17 53 16 0 31 10 56 22 56 5 0 8 -15 7 -34 -2 -21 3 -42 13
-53 19 -22 13 -43 -13 -43 -11 0 -19 -7 -19 -17 0 -14 2 -15 9 -4 5 7 14 10
20 6 8 -4 9 -11 2 -18 -12 -16 3 -100 29 -152 23 -46 22 -47 -61 -138 l-54
-59 -495 -1 -495 -2 -3 873 -2 872 872 -2 873 -3 3 -635z m-1118 -134 c11 -11
-20 -73 -76 -151 -46 -65 -84 -97 -84 -70 0 8 4 15 10 15 5 0 13 16 19 36 5
19 23 56 39 82 17 26 41 70 54 97 20 44 23 47 26 25 2 -14 8 -29 12 -34z m315
-334 c-8 -2 -15 -10 -15 -18 0 -8 -4 -14 -10 -14 -16 0 -12 27 6 45 14 13 19
14 25 3 6 -8 3 -14 -6 -16z m9 -27 c-4 -8 -8 -15 -10 -15 -2 0 -4 7 -4 15 0 8
4 15 10 15 5 0 7 -7 4 -15z m-435 -135 c3 -3 12 -15 19 -28 16 -28 -1 -38 -41
-23 -20 8 -27 17 -27 37 0 19 4 25 15 20 10 -3 15 1 16 12 0 14 2 14 6 2 3 -8
9 -17 12 -20z m887 -9 c73 -33 113 -111 94 -183 -21 -75 -165 -268 -200 -268
-5 0 -16 -3 -25 -7 -10 -3 11 30 47 75 84 107 138 199 138 237 0 102 -126 160
-215 100 -20 -15 -40 -23 -43 -20 -22 21 79 85 133 85 16 0 48 -9 71 -19z
m188 -17 c9 -3 16 -13 16 -20 0 -12 -4 -12 -20 -4 -11 6 -20 15 -20 20 0 12 3
12 24 4z m65 -13 c24 -15 -2 -61 -34 -61 -14 0 -25 5 -25 10 0 6 -7 10 -15 10
-8 0 -15 5 -15 10 0 13 27 13 32 -1 2 -5 11 -7 21 -4 13 6 14 11 6 26 -11 21
4 26 30 10z m-102 -7 c-3 -3 -12 -4 -19 -1 -8 3 -5 6 6 6 11 1 17 -2 13 -5z
m-177 -29 c36 -19 50 -43 50 -89 0 -29 -16 -57 -90 -155 -90 -119 -121 -151
-149 -151 -8 0 5 21 30 48 52 55 173 219 182 245 11 30 -19 74 -54 82 -71 16
-117 -70 -64 -119 28 -26 19 -44 -15 -26 -26 14 -40 42 -40 80 0 43 16 69 53
85 42 18 62 18 97 0z m334 -11 c7 -19 -34 -55 -59 -52 -26 4 -22 22 5 26 15 3
20 9 16 19 -3 8 -4 19 -1 23 8 12 32 2 39 -16z m-350 -45 c14 -11 26 -27 26
-34 0 -17 -139 -206 -193 -262 -63 -66 -76 -51 -14 16 82 89 177 221 177 246
0 27 -27 40 -46 24 -18 -15 -18 -28 3 -51 13 -15 14 -18 2 -18 -41 0 -52 59
-17 84 29 20 30 20 62 -5z m376 -27 c0 -36 -5 -54 -20 -67 -11 -10 -20 -15
-20 -11 0 3 -10 0 -22 -8 -29 -18 -76 -28 -89 -20 -18 10 29 52 54 47 17 -3
28 6 50 42 15 26 27 50 27 56 0 5 5 9 10 9 6 0 10 -22 10 -48z m-524 -77 c8
-8 25 -21 37 -30 17 -12 19 -17 8 -27 -10 -11 -18 -7 -42 20 -38 42 -40 75 -3
37z m504 -23 c0 -5 -19 -19 -41 -31 -35 -20 -51 -23 -106 -18 -67 5 -95 19
-77 37 6 6 22 6 44 0 48 -14 109 -12 145 5 17 7 31 14 33 14 1 1 2 -3 2 -7z
m-100 -67 l45 6 -29 -16 c-47 -27 -156 -21 -156 9 0 11 11 11 48 5 26 -5 67
-7 92 -4z m-190 -120 c0 -14 -4 -25 -10 -25 -5 0 -10 11 -10 25 0 14 5 25 10
25 6 0 10 -11 10 -25z m47 9 c8 -22 -15 -43 -27 -24 -5 8 -10 21 -10 28 0 17
30 15 37 -4z m33 -1 c0 -14 2 -14 20 2 18 16 20 16 20 2 0 -27 -3 -30 -40 -33
-19 -1 -30 0 -24 2 7 3 10 14 7 24 -3 11 0 20 6 20 6 0 11 -7 11 -17z m150 -9
c0 -26 -18 -31 -39 -11 -11 10 -13 10 -7 0 4 -8 1 -13 -7 -13 -9 0 -14 9 -13
24 1 20 6 24 34 24 27 0 32 -4 32 -24z m37 4 l-6 -23 19 23 c23 28 30 28 30
-1 0 -19 -5 -23 -34 -24 -30 -1 -34 2 -32 23 0 13 7 24 15 24 9 0 11 -7 8 -22z"/>
<path d="M830 1547 c-14 -6 -28 -16 -32 -21 -10 -15 1 -26 19 -19 10 4 26 -6
47 -30 29 -34 34 -36 51 -22 18 13 18 14 3 15 -11 0 -15 5 -12 15 7 17 -18 45
-40 45 -10 0 -13 6 -10 15 7 17 7 17 -26 2z"/>
<path d="M1392 1418 c6 -18 28 -21 28 -4 0 9 -7 16 -16 16 -9 0 -14 -5 -12
-12z"/>
<path d="M747 1383 c-3 -5 1 -13 8 -20 10 -10 14 -9 18 1 8 21 -15 37 -26 19z"/>
<path d="M830 1375 c0 -8 5 -15 10 -15 6 0 10 5 10 11 0 5 5 7 12 3 7 -4 8 -3
4 4 -10 17 -36 15 -36 -3z"/>
<path d="M1126 1383 c-5 -6 18 -33 28 -33 3 0 6 6 6 14 0 15 -24 28 -34 19z"/>
<path d="M1220 1349 c0 -17 3 -19 13 -10 8 6 17 8 20 4 4 -3 7 -2 7 4 0 9 -22
23 -36 23 -2 0 -4 -10 -4 -21z"/>
<path d="M1061 1321 c3 -8 21 -27 40 -42 26 -21 41 -26 63 -22 l28 6 -31 13
c-18 7 -31 21 -32 31 0 13 -3 11 -10 -7 l-10 -25 -26 30 c-15 16 -24 24 -22
16z"/>
<path d="M1108 1173 c-13 -16 -13 -24 -1 -66 15 -51 33 -54 33 -6 0 18 -4 28
-10 24 -18 -11 -24 27 -7 40 10 7 17 15 17 19 0 12 -17 6 -32 -11z"/>
<path d="M1335 1105 c7 -33 12 -41 21 -33 3 4 -2 19 -11 35 l-16 28 6 -30z"/>
<path d="M1056 1092 c-10 -17 -26 -62 -21 -62 7 0 37 62 32 67 -3 2 -8 0 -11
-5z"/>
<path d="M1379 1033 c5 -10 24 -31 42 -48 31 -29 31 -28 -5 18 -40 49 -54 60
-37 30z"/>
<path d="M1470 925 c14 -16 26 -32 28 -34 1 -2 4 -2 7 1 3 2 -10 18 -28 34
l-32 29 25 -30z"/>
<path d="M478 803 c7 -3 16 -2 19 1 4 3 -2 6 -13 5 -11 0 -14 -3 -6 -6z"/>
<path d="M1565 761 c-3 -5 -1 -12 5 -16 5 -3 10 1 10 9 0 18 -6 21 -15 7z"/>
<path d="M1731 114 c0 -11 3 -14 6 -6 3 7 2 16 -1 19 -3 4 -6 -2 -5 -13z"/>
</g>
</svg>
